<?xml version="1.0" encoding="UTF-8"?>
<svg width="57px" height="75px" viewBox="0 0 57 75" version="1.1" xmlns="http://www.w3.org/2000/svg" xmlns:xlink="http://www.w3.org/1999/xlink">
    <title>3</title>
    <defs>
        <path d="M1071.375,234.35 C1074.975,234.35 1078.215,233.825 1081.095,232.775 C1083.975,231.725 1086.435,230.33 1088.475,228.59 C1090.515,226.85 1092.075,224.84 1093.155,222.56 C1094.235,220.28 1094.775,217.91 1094.775,215.45 C1094.775,212.39 1094.145,209.855 1092.885,207.845 C1091.625,205.835 1090.245,204.23 1088.745,203.03 C1086.945,201.59 1084.905,200.48 1082.625,199.7 C1084.485,198.98 1086.135,198.02 1087.575,196.82 C1088.835,195.8 1089.975,194.42 1090.995,192.68 C1092.015,190.94 1092.525,188.78 1092.525,186.2 C1092.525,183.92 1092.015,181.73 1090.995,179.63 C1089.975,177.53 1088.535,175.67 1086.675,174.05 C1084.815,172.43 1082.595,171.125 1080.015,170.135 C1077.435,169.145 1074.555,168.65 1071.375,168.65 C1067.775,168.65 1064.625,169.13 1061.925,170.09 C1059.225,171.05 1056.975,172.13 1055.175,173.33 C1053.075,174.77 1051.275,176.36 1049.775,178.1 L1049.775,178.1 L1058.775,187.1 C1059.675,185.9 1060.695,184.85 1061.835,183.95 C1062.855,183.11 1064.055,182.375 1065.435,181.745 C1066.815,181.115 1068.345,180.8 1070.025,180.8 C1072.725,180.8 1074.825,181.49 1076.325,182.87 C1077.825,184.25 1078.575,185.96 1078.575,188 C1078.575,190.04 1077.825,191.75 1076.325,193.13 C1074.825,194.51 1072.725,195.2 1070.025,195.2 L1070.025,195.2 L1063.725,195.2 L1063.725,206.9 L1070.925,206.9 C1074.105,206.9 1076.55,207.665 1078.26,209.195 C1079.97,210.725 1080.825,212.51 1080.825,214.55 C1080.825,216.59 1079.925,218.375 1078.125,219.905 C1076.325,221.435 1073.625,222.2 1070.025,222.2 C1067.985,222.2 1066.14,221.84 1064.49,221.12 C1062.84,220.4 1061.415,219.62 1060.215,218.78 C1058.835,217.82 1057.605,216.71 1056.525,215.45 L1056.525,215.45 L1047.525,224.45 C1049.205,226.31 1051.215,227.96 1053.555,229.4 C1055.535,230.6 1058.01,231.725 1060.98,232.775 C1063.95,233.825 1067.415,234.35 1071.375,234.35 Z" id="path-1"></path>
        <filter x="-20.1%" y="-9.9%" width="136.0%" height="125.9%" filterUnits="objectBoundingBox" id="filter-2">
            <feOffset dx="-1" dy="2" in="SourceAlpha" result="shadowOffsetOuter1"></feOffset>
            <feGaussianBlur stdDeviation="2.5" in="shadowOffsetOuter1" result="shadowBlurOuter1"></feGaussianBlur>
            <feColorMatrix values="0 0 0 0 0   0 0 0 0 0   0 0 0 0 0  0 0 0 0.208397072 0" type="matrix" in="shadowBlurOuter1"></feColorMatrix>
        </filter>
    </defs>
    <g id="PROFESSIONAL-PRINT-LP" stroke="none" stroke-width="1" fill="none" fill-rule="evenodd">
        <g id="1440-Professional-Print-LP-Page-Layout" transform="translate(-1042.000000, -740.000000)" fill-rule="nonzero">
            <g id="3" transform="translate(0.000000, 574.000000)">
                <use fill="black" fill-opacity="1" filter="url(#filter-2)" xlink:href="#path-1"></use>
                <use fill="#CC0000" xlink:href="#path-1"></use>
            </g>
        </g>
    </g>
</svg>